<!-- Generator: Adobe Illustrator 23.0.2, SVG Export Plug-In  -->
<svg version="1.1" xmlns="http://www.w3.org/2000/svg" xmlns:xlink="http://www.w3.org/1999/xlink" x="0px" y="0px" width="400px"
	 height="400px" viewBox="0 0 100 100" style="enable-background:new 0 0 400 400;" xml:space="preserve">
<style type="text/css">
	.st0{fill:#330099;}
</style>
<defs>
</defs>
<g>
	<g>
		<path class="st0" d="M47.6,348.12v48.26c0,1.69-1.47,2.53-4.4,2.53c-2.93,0-4.4-0.84-4.4-2.53v-49.36c0-5.71-5-8.57-15-8.57
			s-15,2.86-15,8.57v49.36c0,1.69-1.47,2.53-4.4,2.53c-2.93,0-4.4-0.84-4.4-2.53v-83.43c0-1.69,1.46-2.53,4.4-2.53
			c2.93,0,4.4,0.84,4.4,2.53v22.31c4.03-3,9.32-4.5,15.88-4.5c6.56,0,12.02,1.37,16.38,4.12C45.41,337.62,47.6,342.04,47.6,348.12z"
			/>
		<path class="st0" d="M118.28,348.12v34.52c0,6.08-2.16,10.5-6.49,13.24c-4.32,2.75-10.08,4.12-17.26,4.12
			c-7.18,0-12.95-1.37-17.31-4.12c-4.36-2.75-6.54-7.16-6.54-13.24v-34.52c0-6.08,2.16-10.5,6.49-13.24
			c4.32-2.75,10.08-4.12,17.26-4.12c7.18,0,12.95,1.37,17.31,4.12C116.09,337.62,118.28,342.04,118.28,348.12z M109.48,383.73
			v-36.72c0-5.71-5-8.57-15-8.57c-10,0-15.01,2.86-15.01,8.57v36.72c0,5.71,5,8.57,15.01,8.57
			C104.48,392.31,109.48,389.45,109.48,383.73z"/>
		<path class="st0" d="M145.76,390.66h35.5c1.47,0,2.2,1.28,2.2,3.85c0,2.57-0.73,3.85-2.2,3.85h-42.1c-1.47,0-2.2-1.28-2.2-3.85
			v-3.85c0-2.78,0.27-4.67,0.82-5.66c0.55-0.99,0.93-1.69,1.15-2.09c0.22-0.4,0.71-1.02,1.48-1.87c0.77-0.84,1.36-1.46,1.76-1.87
			c0.4-0.4,1.21-1.23,2.42-2.47c1.21-1.25,2.18-2.24,2.91-2.97l22.2-22.75c2.2-2.27,3.55-3.83,4.07-4.67
			c0.51-0.84,0.77-2.11,0.77-3.79v-2.42h-32.21c-1.47,0-2.2-1.28-2.2-3.85c0-2.57,0.73-3.85,2.2-3.85h38.8c1.47,0,2.2,1.28,2.2,3.85
			v6.04c0,3.45-0.55,6.01-1.65,7.7c-1.1,1.69-4.07,4.76-8.9,9.23l-22.2,22.75c-2.2,2.27-3.56,3.85-4.07,4.73
			C146.01,387.58,145.76,388.9,145.76,390.66z"/>
		<path class="st0" d="M250.84,348.12v34.52c0,6.08-2.16,10.5-6.49,13.24c-4.32,2.75-10.08,4.12-17.26,4.12
			c-7.18,0-12.95-1.37-17.31-4.12c-4.36-2.75-6.54-7.16-6.54-13.24v-34.52c0-6.08,2.16-10.5,6.49-13.24
			c4.32-2.75,10.08-4.12,17.26-4.12c7.18,0,12.95,1.37,17.31,4.12C248.66,337.62,250.84,342.04,250.84,348.12z M242.05,383.73
			v-36.72c0-5.71-5-8.57-15-8.57c-10,0-15.01,2.86-15.01,8.57v36.72c0,5.71,5,8.57,15.01,8.57
			C237.05,392.31,242.05,389.45,242.05,383.73z"/>
		<path class="st0" d="M282.72,312.94v83.43c0,1.69-1.47,2.53-4.4,2.53c-2.93,0-4.4-0.84-4.4-2.53v-83.43c0-1.69,1.47-2.53,4.4-2.53
			C281.25,310.42,282.72,311.26,282.72,312.94z M320.97,396.92c0,1.32-1.28,1.98-3.85,1.98c-2.57,0-4.11-0.84-4.62-2.53l-6.49-22.31
			c-0.73-2.56-1.67-4.2-2.8-4.89c-1.14-0.69-3.68-1.04-7.64-1.04h-6.92c-1.47,0-2.2-1.28-2.2-3.85c0-2.56,0.73-3.85,2.2-3.85h4.18
			c3.08-0.07,5.09-0.46,6.05-1.15c0.95-0.7,1.87-2.29,2.75-4.78l7.36-20.11c0.59-1.69,2.14-2.53,4.67-2.53s3.79,0.66,3.79,1.98
			c0,0.07-0.37,1.21-1.1,3.41l-7.14,20.34c-0.66,1.83-1.58,3.23-2.75,4.18c3.37,1.25,5.75,4.32,7.14,9.23l6.6,22.98
			C320.71,395.86,320.97,396.85,320.97,396.92z"/>
		<path class="st0" d="M349.22,310.96v9.56c0,1.83-1.59,2.75-4.78,2.75c-3.19,0-4.78-0.92-4.78-2.75v-9.56
			c0-1.83,1.59-2.75,4.78-2.75C347.62,308.22,349.22,309.13,349.22,310.96z M348.89,334.38v51.11c0,2.35,0.55,4.53,1.65,6.54
			c1.1,2.02,1.65,3.06,1.65,3.13c0,0.88-0.7,1.81-2.09,2.8c-1.39,0.99-2.57,1.48-3.52,1.48c-1.54,0-3.01-1.34-4.4-4.01
			c-1.39-2.67-2.09-5.62-2.09-8.85v-52.21c0-1.69,1.47-2.53,4.4-2.53C347.42,331.85,348.89,332.69,348.89,334.38z"/>
		<path class="st0" d="M386.26,319.54v12.86h11.54c1.47,0,2.2,1.28,2.2,3.85c0,2.57-0.73,3.85-2.2,3.85h-11.54v45.4
			c0,2.35,0.55,4.53,1.65,6.54c1.1,2.02,1.65,3.06,1.65,3.13c0,0.88-0.7,1.81-2.09,2.8c-1.39,0.99-2.57,1.48-3.52,1.48
			c-1.54,0-3.01-1.34-4.4-4.01c-1.39-2.67-2.09-5.62-2.09-8.85v-46.5h-8.79c-1.47,0-2.2-1.28-2.2-3.85c0-2.57,0.73-3.85,2.2-3.85
			h8.79v-12.86c0-1.68,1.47-2.53,4.4-2.53C384.79,317.01,386.26,317.85,386.26,319.54z"/>
	</g>
	<g>
		<g>
			<path d="M250.77,20v47.69v47.69h-27.69V67.69v-20h-20h-67.69H67.69H20V20h47.69h67.69h67.69H250.77 M270.77,0h-67.69h-67.69
				H67.69H0v67.69h67.69h67.69h67.69v67.69h67.69V67.69V0L270.77,0z"/>
		</g>
		<g>
			<path d="M336.92,131.31V179v20h20h6.15H380v27.69h-16.92h-36.92h-67.69h-67.69h-36.92h-16.92V179v-47.69h27.69V179v20h20h6.15
				h67.69h30.77h20v-20v-47.69H336.92 M356.92,111.31h-67.69V179h-30.77h-67.69h-6.15v-67.69h-67.69V179v67.69h6.15h30.77h36.92
				h67.69h67.69h36.92h30.77H400V179h-6.15h-30.77h-6.15V111.31L356.92,111.31z"/>
		</g>
		<g>
			<path d="M32.53,141.98c6.91,0,12.53,5.62,12.53,12.53s-5.62,12.53-12.53,12.53S20,161.41,20,154.51S25.62,141.98,32.53,141.98
				 M32.53,121.98C14.56,121.98,0,136.54,0,154.51c0,17.96,14.56,32.53,32.53,32.53c17.96,0,32.53-14.56,32.53-32.53
				C65.06,136.54,50.49,121.98,32.53,121.98L32.53,121.98z"/>
		</g>
	</g>
</g>
</svg>
